<mxfile host="app.diagrams.net" modified="2021-04-25T11:26:06.290Z" agent="5.0 (X11; Linux x86_64) AppleWebKit/537.36 (KHTML, like Gecko) Chrome/90.0.4430.72 Safari/537.36" etag="IZw2I8-sp8GdsdlXsaub" version="14.6.6" type="github">
  <diagram id="c1eO5yv0pKE1Q5gCiJQ5" name="Page-1">
    <mxGraphModel dx="1440" dy="600" grid="1" gridSize="10" guides="1" tooltips="1" connect="1" arrows="1" fold="1" page="1" pageScale="1" pageWidth="850" pageHeight="1100" math="0" shadow="0">
      <root>
        <mxCell id="0" />
        <mxCell id="1" parent="0" />
        <mxCell id="LiSQRWz91xJu8Bzv4SBx-1" value="Musician" style="rounded=0;whiteSpace=wrap;html=1;" parent="1" vertex="1">
          <mxGeometry x="330" y="310" width="120" height="40" as="geometry" />
        </mxCell>
        <mxCell id="LiSQRWz91xJu8Bzv4SBx-2" value="Mus_ID" style="ellipse;whiteSpace=wrap;html=1;" parent="1" vertex="1">
          <mxGeometry x="140" y="220" width="120" height="50" as="geometry" />
        </mxCell>
        <mxCell id="LiSQRWz91xJu8Bzv4SBx-3" value="Mus_Addredd" style="ellipse;whiteSpace=wrap;html=1;" parent="1" vertex="1">
          <mxGeometry x="270" y="220" width="120" height="50" as="geometry" />
        </mxCell>
        <mxCell id="LiSQRWz91xJu8Bzv4SBx-4" value="&lt;span&gt;Mus_phone&lt;/span&gt;" style="ellipse;whiteSpace=wrap;html=1;" parent="1" vertex="1">
          <mxGeometry x="400" y="220" width="120" height="50" as="geometry" />
        </mxCell>
        <mxCell id="LiSQRWz91xJu8Bzv4SBx-5" value="&lt;span&gt;Mus_name&lt;/span&gt;" style="ellipse;whiteSpace=wrap;html=1;" parent="1" vertex="1">
          <mxGeometry x="540" y="220" width="120" height="50" as="geometry" />
        </mxCell>
        <mxCell id="LiSQRWz91xJu8Bzv4SBx-7" value="" style="endArrow=none;html=1;entryX=0.5;entryY=1;entryDx=0;entryDy=0;" parent="1" target="LiSQRWz91xJu8Bzv4SBx-2" edge="1">
          <mxGeometry width="50" height="50" relative="1" as="geometry">
            <mxPoint x="380" y="310" as="sourcePoint" />
            <mxPoint x="430" y="260" as="targetPoint" />
          </mxGeometry>
        </mxCell>
        <mxCell id="LiSQRWz91xJu8Bzv4SBx-8" value="" style="endArrow=none;html=1;entryX=0.5;entryY=1;entryDx=0;entryDy=0;" parent="1" target="LiSQRWz91xJu8Bzv4SBx-3" edge="1">
          <mxGeometry width="50" height="50" relative="1" as="geometry">
            <mxPoint x="380" y="310" as="sourcePoint" />
            <mxPoint x="430" y="260" as="targetPoint" />
          </mxGeometry>
        </mxCell>
        <mxCell id="LiSQRWz91xJu8Bzv4SBx-9" value="" style="endArrow=none;html=1;entryX=0.5;entryY=1;entryDx=0;entryDy=0;" parent="1" target="LiSQRWz91xJu8Bzv4SBx-4" edge="1">
          <mxGeometry width="50" height="50" relative="1" as="geometry">
            <mxPoint x="380" y="310" as="sourcePoint" />
            <mxPoint x="430" y="260" as="targetPoint" />
          </mxGeometry>
        </mxCell>
        <mxCell id="LiSQRWz91xJu8Bzv4SBx-10" value="" style="endArrow=none;html=1;entryX=0.5;entryY=1;entryDx=0;entryDy=0;" parent="1" target="LiSQRWz91xJu8Bzv4SBx-5" edge="1">
          <mxGeometry width="50" height="50" relative="1" as="geometry">
            <mxPoint x="380" y="310" as="sourcePoint" />
            <mxPoint x="430" y="260" as="targetPoint" />
          </mxGeometry>
        </mxCell>
        <mxCell id="LiSQRWz91xJu8Bzv4SBx-11" value="&lt;span&gt;Mus_Street&lt;/span&gt;" style="ellipse;whiteSpace=wrap;html=1;" parent="1" vertex="1">
          <mxGeometry x="330" y="130" width="120" height="50" as="geometry" />
        </mxCell>
        <mxCell id="LiSQRWz91xJu8Bzv4SBx-12" value="Mus_Citty" style="ellipse;whiteSpace=wrap;html=1;" parent="1" vertex="1">
          <mxGeometry x="160" y="130" width="120" height="50" as="geometry" />
        </mxCell>
        <mxCell id="LiSQRWz91xJu8Bzv4SBx-14" value="" style="endArrow=none;html=1;entryX=0.5;entryY=1;entryDx=0;entryDy=0;exitX=0.5;exitY=0;exitDx=0;exitDy=0;" parent="1" target="LiSQRWz91xJu8Bzv4SBx-11" edge="1" source="LiSQRWz91xJu8Bzv4SBx-3">
          <mxGeometry width="50" height="50" relative="1" as="geometry">
            <mxPoint x="390" y="150" as="sourcePoint" />
            <mxPoint x="440" y="100" as="targetPoint" />
          </mxGeometry>
        </mxCell>
        <mxCell id="LiSQRWz91xJu8Bzv4SBx-15" value="" style="endArrow=none;html=1;entryX=0.5;entryY=1;entryDx=0;entryDy=0;exitX=0.5;exitY=0;exitDx=0;exitDy=0;" parent="1" target="LiSQRWz91xJu8Bzv4SBx-12" edge="1" source="LiSQRWz91xJu8Bzv4SBx-3">
          <mxGeometry width="50" height="50" relative="1" as="geometry">
            <mxPoint x="390" y="150" as="sourcePoint" />
            <mxPoint x="440" y="100" as="targetPoint" />
          </mxGeometry>
        </mxCell>
        <mxCell id="LiSQRWz91xJu8Bzv4SBx-16" value="Album" style="rounded=0;whiteSpace=wrap;html=1;" parent="1" vertex="1">
          <mxGeometry x="185" y="430" width="120" height="40" as="geometry" />
        </mxCell>
        <mxCell id="LiSQRWz91xJu8Bzv4SBx-17" value="Albu_Identifier" style="ellipse;whiteSpace=wrap;html=1;" parent="1" vertex="1">
          <mxGeometry x="60" y="540" width="120" height="50" as="geometry" />
        </mxCell>
        <mxCell id="LiSQRWz91xJu8Bzv4SBx-18" value="&lt;span&gt;Albu_identifier&lt;/span&gt;" style="ellipse;whiteSpace=wrap;html=1;" parent="1" vertex="1">
          <mxGeometry x="320" y="540" width="120" height="50" as="geometry" />
        </mxCell>
        <mxCell id="LiSQRWz91xJu8Bzv4SBx-19" value="&lt;span&gt;Albu_date&lt;/span&gt;" style="ellipse;whiteSpace=wrap;html=1;" parent="1" vertex="1">
          <mxGeometry x="190" y="540" width="120" height="50" as="geometry" />
        </mxCell>
        <mxCell id="LiSQRWz91xJu8Bzv4SBx-20" value="" style="endArrow=none;html=1;entryX=0.5;entryY=0;entryDx=0;entryDy=0;exitX=0.5;exitY=1;exitDx=0;exitDy=0;" parent="1" target="LiSQRWz91xJu8Bzv4SBx-17" edge="1" source="LiSQRWz91xJu8Bzv4SBx-16">
          <mxGeometry width="50" height="50" relative="1" as="geometry">
            <mxPoint x="245" y="410" as="sourcePoint" />
            <mxPoint x="100" y="540" as="targetPoint" />
          </mxGeometry>
        </mxCell>
        <mxCell id="LiSQRWz91xJu8Bzv4SBx-21" value="" style="endArrow=none;html=1;entryX=0.5;entryY=0;entryDx=0;entryDy=0;exitX=0.5;exitY=1;exitDx=0;exitDy=0;" parent="1" target="LiSQRWz91xJu8Bzv4SBx-18" edge="1" source="LiSQRWz91xJu8Bzv4SBx-16">
          <mxGeometry width="50" height="50" relative="1" as="geometry">
            <mxPoint x="245" y="410" as="sourcePoint" />
            <mxPoint x="390" y="540" as="targetPoint" />
          </mxGeometry>
        </mxCell>
        <mxCell id="LiSQRWz91xJu8Bzv4SBx-22" value="" style="endArrow=none;html=1;entryX=0.5;entryY=0;entryDx=0;entryDy=0;exitX=0.5;exitY=1;exitDx=0;exitDy=0;" parent="1" source="LiSQRWz91xJu8Bzv4SBx-16" target="LiSQRWz91xJu8Bzv4SBx-19" edge="1">
          <mxGeometry width="50" height="50" relative="1" as="geometry">
            <mxPoint x="245" y="460" as="sourcePoint" />
            <mxPoint x="215" y="530" as="targetPoint" />
          </mxGeometry>
        </mxCell>
        <mxCell id="LiSQRWz91xJu8Bzv4SBx-23" value="Song" style="rounded=0;whiteSpace=wrap;html=1;" parent="1" vertex="1">
          <mxGeometry x="490" y="430" width="120" height="40" as="geometry" />
        </mxCell>
        <mxCell id="LiSQRWz91xJu8Bzv4SBx-24" value="Song_title" style="ellipse;whiteSpace=wrap;html=1;" parent="1" vertex="1">
          <mxGeometry x="540" y="550" width="120" height="50" as="geometry" />
        </mxCell>
        <mxCell id="LiSQRWz91xJu8Bzv4SBx-26" value="Song_Author" style="ellipse;whiteSpace=wrap;html=1;" parent="1" vertex="1">
          <mxGeometry x="670" y="550" width="120" height="50" as="geometry" />
        </mxCell>
        <mxCell id="LiSQRWz91xJu8Bzv4SBx-27" value="" style="endArrow=none;html=1;entryX=0.5;entryY=0;entryDx=0;entryDy=0;exitX=0.5;exitY=1;exitDx=0;exitDy=0;" parent="1" target="LiSQRWz91xJu8Bzv4SBx-24" edge="1" source="LiSQRWz91xJu8Bzv4SBx-23">
          <mxGeometry width="50" height="50" relative="1" as="geometry">
            <mxPoint x="600" y="570" as="sourcePoint" />
            <mxPoint x="640" y="460" as="targetPoint" />
          </mxGeometry>
        </mxCell>
        <mxCell id="LiSQRWz91xJu8Bzv4SBx-29" value="" style="endArrow=none;html=1;entryX=0.5;entryY=0;entryDx=0;entryDy=0;exitX=0.5;exitY=1;exitDx=0;exitDy=0;" parent="1" source="LiSQRWz91xJu8Bzv4SBx-23" target="LiSQRWz91xJu8Bzv4SBx-26" edge="1">
          <mxGeometry width="50" height="50" relative="1" as="geometry">
            <mxPoint x="755" y="510" as="sourcePoint" />
            <mxPoint x="635" y="430" as="targetPoint" />
          </mxGeometry>
        </mxCell>
        <mxCell id="h4awlgwUyVZ4CF5QtpJ1-2" value="Instrument" style="whiteSpace=wrap;html=1;align=center;" vertex="1" parent="1">
          <mxGeometry x="650" y="310" width="120" height="40" as="geometry" />
        </mxCell>
        <mxCell id="h4awlgwUyVZ4CF5QtpJ1-3" value="" style="edgeStyle=entityRelationEdgeStyle;fontSize=12;html=1;endArrow=ERzeroToMany;endFill=1;startArrow=ERzeroToMany;entryX=0;entryY=0.5;entryDx=0;entryDy=0;exitX=1;exitY=0.5;exitDx=0;exitDy=0;" edge="1" parent="1" source="LiSQRWz91xJu8Bzv4SBx-1" target="h4awlgwUyVZ4CF5QtpJ1-2">
          <mxGeometry width="100" height="100" relative="1" as="geometry">
            <mxPoint x="400" y="360" as="sourcePoint" />
            <mxPoint x="500" y="260" as="targetPoint" />
          </mxGeometry>
        </mxCell>
        <mxCell id="h4awlgwUyVZ4CF5QtpJ1-4" value="" style="edgeStyle=entityRelationEdgeStyle;fontSize=12;html=1;endArrow=ERoneToMany;startArrow=ERmandOne;exitX=1;exitY=0.5;exitDx=0;exitDy=0;entryX=0;entryY=0.5;entryDx=0;entryDy=0;" edge="1" parent="1" source="LiSQRWz91xJu8Bzv4SBx-16" target="LiSQRWz91xJu8Bzv4SBx-23">
          <mxGeometry width="100" height="100" relative="1" as="geometry">
            <mxPoint x="339" y="970" as="sourcePoint" />
            <mxPoint x="430" y="400" as="targetPoint" />
          </mxGeometry>
        </mxCell>
        <mxCell id="h4awlgwUyVZ4CF5QtpJ1-7" value="" style="edgeStyle=entityRelationEdgeStyle;fontSize=12;html=1;endArrow=ERzeroToMany;startArrow=ERmandOne;entryX=0.5;entryY=0;entryDx=0;entryDy=0;exitX=0;exitY=1;exitDx=0;exitDy=0;" edge="1" parent="1" source="LiSQRWz91xJu8Bzv4SBx-1" target="LiSQRWz91xJu8Bzv4SBx-16">
          <mxGeometry width="100" height="100" relative="1" as="geometry">
            <mxPoint x="327" y="350.0000000000001" as="sourcePoint" />
            <mxPoint x="303" y="510" as="targetPoint" />
          </mxGeometry>
        </mxCell>
        <mxCell id="h4awlgwUyVZ4CF5QtpJ1-8" value="" style="edgeStyle=entityRelationEdgeStyle;fontSize=12;html=1;endArrow=ERoneToMany;startArrow=ERoneToMany;exitX=0;exitY=0;exitDx=0;exitDy=0;entryX=0.5;entryY=1;entryDx=0;entryDy=0;" edge="1" parent="1" source="LiSQRWz91xJu8Bzv4SBx-23" target="LiSQRWz91xJu8Bzv4SBx-1">
          <mxGeometry width="100" height="100" relative="1" as="geometry">
            <mxPoint x="450" y="500" as="sourcePoint" />
            <mxPoint x="550" y="400" as="targetPoint" />
          </mxGeometry>
        </mxCell>
      </root>
    </mxGraphModel>
  </diagram>
</mxfile>
